<?xml version="1.0" encoding="UTF-8"?>
<svg width="201px" height="20px" viewBox="0 0 201 20" version="1.1" xmlns="http://www.w3.org/2000/svg" xmlns:xlink="http://www.w3.org/1999/xlink">
    <!-- Generator: Sketch 46.2 (44496) - http://www.bohemiancoding.com/sketch -->
    <title>PEAKY OUTFITS</title>
    <desc>Created with Sketch.</desc>
    <defs></defs>
    <g id="Page-1" stroke="none" stroke-width="1" fill="none" fill-rule="evenodd">
        <g id="Desktop" transform="translate(-109.000000, -2005.000000)" fill="#000000">
            <path d="M120.087522,2010.91544 C120.087522,2012.69973 119.500465,2014.06738 118.326334,2015.01843 C117.152203,2015.96949 115.488875,2016.44501 113.336302,2016.44501 L110.572215,2016.44501 L110.572215,2024.07026 L109.324707,2024.07026 L109.324707,2005.61312 L113.703216,2005.61312 C117.959441,2005.61312 120.087522,2007.38054 120.087522,2010.91544 Z M110.572215,2015.33405 L113.03054,2015.33405 C115.044501,2015.33405 116.499912,2014.99109 117.396818,2014.30515 C118.293724,2013.61921 118.74217,2012.50615 118.74217,2010.96594 C118.74217,2009.54357 118.318184,2008.48942 117.470201,2007.80348 C116.622217,2007.11755 115.309493,2006.77458 113.531989,2006.77458 L110.572215,2006.77458 L110.572215,2015.33405 Z M136.253758,2024.07026 L126.481612,2024.07026 L126.481612,2005.61312 L136.253758,2005.61312 L136.253758,2006.79983 L127.72912,2006.79983 L127.72912,2013.78123 L135.77677,2013.78123 L135.77677,2014.96794 L127.72912,2014.96794 L127.72912,2022.88355 L136.253758,2022.88355 L136.253758,2024.07026 Z M151.417096,2017.55598 L144.152196,2017.55598 L141.65718,2024.07026 L140.275137,2024.07026 L147.466654,2005.53737 L148.261635,2005.53737 L155.306386,2024.07026 L153.899882,2024.07026 L151.417096,2017.55598 Z M144.604724,2016.39451 L151.00126,2016.39451 L148.567396,2009.74136 C148.363554,2009.21954 148.118947,2008.49574 147.833568,2007.56993 C147.613418,2008.37791 147.372888,2009.11013 147.11197,2009.76661 L144.604724,2016.39451 Z M172.365447,2024.07026 L170.836638,2024.07026 L163.975344,2014.32408 L161.590402,2016.49551 L161.590402,2024.07026 L160.342894,2024.07026 L160.342894,2005.61312 L161.590402,2005.61312 L161.590402,2015.2078 L163.571738,2013.16262 L170.579798,2005.61312 L172.169759,2005.61312 L164.843707,2013.41511 L172.365447,2024.07026 Z M181.511393,2015.71279 L186.746035,2005.61312 L188.091386,2005.61312 L182.135147,2016.93737 L182.135147,2024.07026 L180.850948,2024.07026 L180.850948,2017.03837 L174.870247,2005.61312 L176.301212,2005.61312 L181.511393,2015.71279 Z M217.170554,2014.81644 C217.170554,2017.74536 216.461194,2020.06195 215.042452,2021.76628 C213.623711,2023.4706 211.666855,2024.32275 209.171826,2024.32275 C206.684951,2024.32275 204.732172,2023.4706 203.313431,2021.76628 C201.894689,2020.06195 201.185329,2017.73694 201.185329,2014.79119 C201.185329,2011.85386 201.900804,2009.54148 203.331776,2007.85398 C204.762748,2006.16649 206.717566,2005.32275 209.196287,2005.32275 C211.691316,2005.32275 213.644095,2006.1707 215.054683,2007.86661 C216.465271,2009.56252 217.170554,2011.87911 217.170554,2014.81644 Z M202.542911,2014.81644 C202.542911,2017.4592 203.11366,2019.50226 204.255177,2020.94568 C205.396693,2022.3891 207.03556,2023.11079 209.171826,2023.11079 C211.3244,2023.11079 212.969382,2022.39541 214.106821,2020.96461 C215.244261,2019.53382 215.812972,2017.48445 215.812972,2014.81644 C215.812972,2012.15685 215.244261,2010.118 214.106821,2008.69983 C212.969382,2007.28166 211.332553,2006.57259 209.196287,2006.57259 C207.068174,2006.57259 205.427269,2007.28797 204.273522,2008.71877 C203.119776,2010.14956 202.542911,2012.1821 202.542911,2014.81644 Z M236.932549,2005.61312 L236.932549,2017.55598 C236.932549,2019.67692 236.337339,2021.33493 235.1469,2022.53006 C233.956462,2023.7252 232.297211,2024.32275 230.169099,2024.32275 C228.098062,2024.32275 226.481618,2023.72309 225.319717,2022.52375 C224.157816,2021.32441 223.576875,2019.65167 223.576875,2017.50548 L223.576875,2005.61312 L224.836613,2005.61312 L224.836613,2017.55598 C224.836613,2019.33184 225.313597,2020.71422 226.267579,2021.70315 C227.22156,2022.69208 228.570975,2023.18654 230.315864,2023.18654 C232.019985,2023.18654 233.340863,2022.7005 234.278537,2021.7284 C235.216211,2020.7563 235.685041,2019.40759 235.685041,2017.68222 L235.685041,2005.61312 L236.932549,2005.61312 Z M248.964887,2024.07026 L247.705148,2024.07026 L247.705148,2006.82508 L241.895674,2006.82508 L241.895674,2005.61312 L254.77436,2005.61312 L254.77436,2006.82508 L248.964887,2006.82508 L248.964887,2024.07026 Z M261.180681,2024.07026 L259.933173,2024.07026 L259.933173,2005.61312 L269.72978,2005.61312 L269.72978,2006.79983 L261.180681,2006.79983 L261.180681,2014.62707 L269.252792,2014.62707 L269.252792,2015.82641 L261.180681,2015.82641 L261.180681,2024.07026 Z M275.010898,2024.07026 L275.010898,2005.61312 L276.258406,2005.61312 L276.258406,2024.07026 L275.010898,2024.07026 Z M288.486431,2024.07026 L287.226692,2024.07026 L287.226692,2006.82508 L281.417218,2006.82508 L281.417218,2005.61312 L294.295904,2005.61312 L294.295904,2006.82508 L288.486431,2006.82508 L288.486431,2024.07026 Z M309.324707,2019.31079 C309.324707,2020.851 308.77638,2022.07137 307.679709,2022.97192 C306.583038,2023.87248 305.125588,2024.32275 303.307315,2024.32275 C301.122127,2024.32275 299.446569,2024.07447 298.280592,2023.5779 L298.280592,2022.2902 C299.568874,2022.8541 301.211818,2023.13604 303.209472,2023.13604 C304.677135,2023.13604 305.841057,2022.78887 306.701271,2022.09451 C307.561485,2021.40016 307.991586,2020.48909 307.991586,2019.36129 C307.991586,2018.66273 307.848898,2018.08411 307.563519,2017.62541 C307.27814,2017.16672 306.813387,2016.748 306.169246,2016.36927 C305.525104,2015.99053 304.579291,2015.58234 303.331776,2015.14468 C301.50535,2014.49662 300.243586,2013.79596 299.546445,2013.04269 C298.849305,2012.28942 298.50074,2011.28577 298.50074,2010.03172 C298.50074,2008.65143 299.024607,2007.52575 300.072356,2006.65465 C301.120105,2005.78355 302.467481,2005.348 304.114526,2005.348 C305.794186,2005.348 307.371901,2005.67624 308.847719,2006.33272 L308.395191,2007.44368 C306.91122,2006.80404 305.4925,2006.48422 304.138987,2006.48422 C302.81809,2006.48422 301.76628,2006.79983 300.983526,2007.43106 C300.200772,2008.06229 299.809401,2008.92076 299.809401,2010.00647 C299.809401,2010.68821 299.929666,2011.24789 300.170199,2011.68554 C300.410733,2012.1232 300.804143,2012.51666 301.35044,2012.86594 C301.896737,2013.21523 302.834397,2013.63394 304.163448,2014.12209 C305.557729,2014.61866 306.605462,2015.10049 307.306679,2015.5676 C308.007896,2016.03472 308.519533,2016.56494 308.841603,2017.1583 C309.163674,2017.75166 309.324707,2018.46915 309.324707,2019.31079 Z" id="PEAKY-OUTFITS"></path>
        </g>
    </g>
</svg>